<?xml version="1.0" encoding="utf-8"?>
<svg xmlns="http://www.w3.org/2000/svg" viewBox="0 0 100 100" width="400" height="400">
  <path d="M83.121094 12.419922C82.924719 12.396047 82.720609 12.431344 82.537109 12.527344L20.347656 44.960938C20.033656 45.124937 19.828547 45.442875 19.810547 45.796875C19.792547 46.150875 19.962812 46.486641 20.257812 46.681641L35.957031 57.072266L37.898438 71.710938C37.940437 72.033937 38.136781 72.314844 38.425781 72.464844C38.570781 72.540844 38.729672 72.578125 38.888672 72.578125C39.045672 72.578125 39.202656 72.54075 39.347656 72.46875L51.912109 65.992188L61.460938 70.763672C61.713938 70.889672 62.008437 70.901828 62.273438 70.798828C62.536437 70.694828 62.74475 70.48475 62.84375 70.21875L83.935547 13.763672C84.080547 13.374672 83.973109 12.938063 83.662109 12.664062C83.506109 12.526562 83.317469 12.443797 83.121094 12.419922 z M 80.503906 15.84375L56.302734 37.652344C56.108746 37.667831 55.947431 37.78262 55.921875 37.996094L36.796875 55.230469L22.775391 45.949219L80.503906 15.84375 z M 79.943359 18.736328L61.359375 68.476562L52.351562 63.974609C52.067116 63.832885 51.729925 63.835311 51.447266 63.980469L45.5625 60.183594L79.943359 18.736328 z M 78.214844 19.253906L69.929688 29.242188C69.767707 28.643626 69.719023 28.024025 69.767578 27.396484C69.781313 27.216529 69.708622 27.094423 69.601562 27.015625L78.214844 19.253906 z M 68.763672 27.771484C68.751678 28.584816 68.901813 29.36978 69.193359 30.130859L65.546875 34.525391C65.434177 33.566311 65.321682 32.606765 65.208984 31.648438C65.185152 31.445218 65.061333 31.315367 64.912109 31.242188L68.763672 27.771484 z M 64.232422 31.853516C64.367391 33.002169 64.503702 34.151116 64.638672 35.298828C64.649021 35.387077 64.679569 35.459625 64.720703 35.523438L61.767578 39.082031C61.579784 37.587846 61.37505 36.096085 61.201172 34.599609C61.200729 34.59583 61.197774 34.593578 61.197266 34.589844L64.232422 31.853516 z M 60.302734 35.396484C60.497971 36.974246 60.714244 38.549145 60.898438 40.128906L57.689453 43.998047C57.443537 42.137209 57.197088 40.276093 56.951172 38.416016L60.302734 35.396484 z M 56.058594 39.220703C56.30106 41.055424 56.54269 42.890698 56.785156 44.724609C56.797999 44.821937 56.837337 44.899295 56.886719 44.966797L53.642578 48.876953C53.433799 46.734142 53.224241 44.590077 53.015625 42.447266C53.001426 42.301844 52.934338 42.194532 52.845703 42.115234L56.058594 39.220703 z M 52.052734 42.830078C52.27241 45.085506 52.493311 47.342229 52.712891 49.597656C52.723567 49.706998 52.768086 49.789378 52.824219 49.861328L50.427734 52.751953C50.066868 50.342579 49.704502 47.932812 49.34375 45.523438C49.332328 45.447088 49.306634 45.385113 49.273438 45.333984L52.052734 42.830078 z M 48.427734 46.097656C48.798402 48.572764 49.168468 51.04833 49.539062 53.523438C49.551678 53.60763 49.580391 53.672951 49.619141 53.726562L46.699219 57.246094C46.426536 54.340423 46.153671 51.434968 45.880859 48.529297C45.877025 48.48803 45.858898 48.457824 45.847656 48.421875L48.427734 46.097656 z M 44.947266 49.234375C45.22007 52.141337 45.492693 55.048117 45.765625 57.955078C45.776346 58.068544 45.823476 58.155319 45.882812 58.228516L44.431641 59.978516C44.422042 59.990802 44.414907 60.004702 44.40625 60.017578C44.403552 60.021521 44.399088 60.023299 44.396484 60.027344C44.394161 60.030937 44.394798 60.035433 44.392578 60.039062C44.384013 60.053026 44.372546 60.065454 44.365234 60.080078L42.931641 63.050781C42.677652 59.426545 42.421787 55.801801 42.167969 52.177734C42.158529 52.043897 42.10042 51.945175 42.025391 51.867188L44.947266 49.234375 z M 41.199219 52.611328C41.473162 56.521856 41.747607 60.433289 42.021484 64.34375C42.030699 64.474389 42.086077 64.571008 42.158203 64.648438L39.664062 69.8125L37.878906 56.359375C37.852355 56.158845 37.750826 55.98598 37.619141 55.837891L41.199219 52.611328 z M 45.021484 61.025391L50.421875 64.507812L40.986328 69.373047L45.021484 61.025391 z M 17.666016 61.738281C14.930531 61.903609 12.974688 64.329828 14.148438 67.548828C15.651324 71.669747 19.258434 74.388422 23.292969 75.683594C22.318278 81.414698 18.860507 86.639569 13.365234 89.105469C12.779234 89.368469 13.288094 90.23075 13.871094 89.96875C19.204094 87.57575 22.848125 82.607359 24.078125 76.943359C24.142824 76.645462 24.193212 76.293681 24.25 75.962891C25.113236 76.188614 25.987074 76.357412 26.861328 76.455078C27.499328 76.527078 27.494328 75.526078 26.861328 75.455078C26.025622 75.361608 25.209888 75.192322 24.408203 74.982422C24.977913 70.586583 24.622355 64.413115 20.574219 62.380859C19.575719 61.879609 18.577844 61.683172 17.666016 61.738281 z M 17.939453 62.820312C21.215453 62.818312 22.606688 65.614234 23.179688 68.365234C23.615871 70.458401 23.692446 72.609057 23.441406 74.708984C20.429614 73.717624 17.785994 71.859055 16.033203 69.0625C14.515203 66.6405 14.286453 62.822313 17.939453 62.820312 z M 35.958984 74.291016C35.893875 74.28223 35.821391 74.287047 35.744141 74.310547C34.620141 74.652547 33.483125 74.93925 32.328125 75.15625C31.696125 75.27525 31.965703 76.240094 32.595703 76.121094C33.750703 75.904094 34.885766 75.617391 36.009766 75.275391C36.547016 75.112641 36.41475 74.352512 35.958984 74.291016 z M 28.128906 75.535156C27.484906 75.511156 27.485906 76.511156 28.128906 76.535156C29.088906 76.570156 30.052672 76.601938 31.013672 76.585938C31.656672 76.575937 31.658672 75.575938 31.013672 75.585938C30.052672 75.600938 29.088906 75.570156 28.128906 75.535156 z" fill="#539B24" />
</svg>